<svg xmlns="http://www.w3.org/2000/svg" viewBox="0 0 200 88" width="200" height="88">
  <path fill="#008373" d="M39.7,0L0,14.9v58.2l39.7,14.9l60.3-20.6V20.6L39.7,0z M77.9,54.7L39.7,69.6V18.3L77.9,33.2V54.7z"/>
  <path fill="#008373" d="M113.8,30.6c-1.2,0-2.3,0.2-3.2,0.6c-0.9,0.4-1.7,1-2.3,1.7c-0.6,0.7-1.1,1.6-1.4,2.6c-0.3,1-0.5,2.1-0.5,3.3
    c0,1.2,0.2,2.3,0.5,3.3c0.3,1,0.8,1.9,1.4,2.6c0.6,0.7,1.4,1.3,2.3,1.7c0.9,0.4,2,0.6,3.2,0.6c1.2,0,2.3-0.2,3.2-0.6
    c0.9-0.4,1.7-1,2.3-1.7c0.6-0.7,1.1-1.6,1.4-2.6c0.3-1,0.5-2.1,0.5-3.3c0-1.2-0.2-2.3-0.5-3.3c-0.3-1-0.8-1.9-1.4-2.6
    c-0.6-0.7-1.4-1.3-2.3-1.7C116.1,30.8,115,30.6,113.8,30.6z M113.8,43.8c-1.3,0-2.3-0.5-3-1.4c-0.7-0.9-1-2.3-1-4.2
    c0-1.9,0.3-3.3,1-4.2c0.7-0.9,1.7-1.4,3-1.4c1.3,0,2.3,0.5,3,1.4c0.7,0.9,1,2.3,1,4.2c0,1.9-0.3,3.3-1,4.2
    C116.1,43.3,115.1,43.8,113.8,43.8z"/>
  <path fill="#008373" d="M129.9,30.6c-1.2,0-2.3,0.2-3.2,0.6c-0.9,0.4-1.7,1-2.3,1.7c-0.6,0.7-1.1,1.6-1.4,2.6c-0.3,1-0.5,2.1-0.5,3.3
    c0,1.2,0.2,2.3,0.5,3.3c0.3,1,0.8,1.9,1.4,2.6c0.6,0.7,1.4,1.3,2.3,1.7c0.9,0.4,2,0.6,3.2,0.6c1.2,0,2.3-0.2,3.2-0.6
    c0.9-0.4,1.7-1,2.3-1.7c0.6-0.7,1.1-1.6,1.4-2.6c0.3-1,0.5-2.1,0.5-3.3c0-1.2-0.2-2.3-0.5-3.3c-0.3-1-0.8-1.9-1.4-2.6
    c-0.6-0.7-1.4-1.3-2.3-1.7C132.2,30.8,131.1,30.6,129.9,30.6z M129.9,43.8c-1.3,0-2.3-0.5-3-1.4c-0.7-0.9-1-2.3-1-4.2
    c0-1.9,0.3-3.3,1-4.2c0.7-0.9,1.7-1.4,3-1.4c1.3,0,2.3,0.5,3,1.4c0.7,0.9,1,2.3,1,4.2c0,1.9-0.3,3.3-1,4.2
    C132.2,43.3,131.2,43.8,129.9,43.8z"/>
  <path fill="#008373" d="M146.4,30.6c-1.2,0-2.3,0.2-3.2,0.6c-0.9,0.4-1.7,1-2.3,1.7c-0.6,0.7-1.1,1.6-1.4,2.6c-0.3,1-0.5,2.1-0.5,3.3
    c0,1.2,0.2,2.3,0.5,3.3c0.3,1,0.8,1.9,1.4,2.6c0.6,0.7,1.4,1.3,2.3,1.7c0.9,0.4,2,0.6,3.2,0.6c1.2,0,2.3-0.2,3.2-0.6
    c0.9-0.4,1.7-1,2.3-1.7c0.6-0.7,1.1-1.6,1.4-2.6c0.3-1,0.5-2.1,0.5-3.3c0-1.2-0.2-2.3-0.5-3.3c-0.3-1-0.8-1.9-1.4-2.6
    c-0.6-0.7-1.4-1.3-2.3-1.7C148.7,30.8,147.6,30.6,146.4,30.6z M146.4,43.8c-1.3,0-2.3-0.5-3-1.4c-0.7-0.9-1-2.3-1-4.2
    c0-1.9,0.3-3.3,1-4.2c0.7-0.9,1.7-1.4,3-1.4c1.3,0,2.3,0.5,3,1.4c0.7,0.9,1,2.3,1,4.2c0,1.9-0.3,3.3-1,4.2
    C148.7,43.3,147.7,43.8,146.4,43.8z"/>
  <path fill="#008373" d="M162.9,30.6c-1.2,0-2.3,0.2-3.2,0.6c-0.9,0.4-1.7,1-2.3,1.7c-0.6,0.7-1.1,1.6-1.4,2.6c-0.3,1-0.5,2.1-0.5,3.3
    c0,1.2,0.2,2.3,0.5,3.3c0.3,1,0.8,1.9,1.4,2.6c0.6,0.7,1.4,1.3,2.3,1.7c0.9,0.4,2,0.6,3.2,0.6c1.2,0,2.3-0.2,3.2-0.6
    c0.9-0.4,1.7-1,2.3-1.7c0.6-0.7,1.1-1.6,1.4-2.6c0.3-1,0.5-2.1,0.5-3.3c0-1.2-0.2-2.3-0.5-3.3c-0.3-1-0.8-1.9-1.4-2.6
    c-0.6-0.7-1.4-1.3-2.3-1.7C165.2,30.8,164.1,30.6,162.9,30.6z M162.9,43.8c-1.3,0-2.3-0.5-3-1.4c-0.7-0.9-1-2.3-1-4.2
    c0-1.9,0.3-3.3,1-4.2c0.7-0.9,1.7-1.4,3-1.4c1.3,0,2.3,0.5,3,1.4c0.7,0.9,1,2.3,1,4.2c0,1.9-0.3,3.3-1,4.2
    C165.2,43.3,164.2,43.8,162.9,43.8z"/>
  <path fill="#008373" d="M179.4,30.6c-1.2,0-2.3,0.2-3.2,0.6c-0.9,0.4-1.7,1-2.3,1.7c-0.6,0.7-1.1,1.6-1.4,2.6c-0.3,1-0.5,2.1-0.5,3.3
    c0,1.2,0.2,2.3,0.5,3.3c0.3,1,0.8,1.9,1.4,2.6c0.6,0.7,1.4,1.3,2.3,1.7c0.9,0.4,2,0.6,3.2,0.6c1.2,0,2.3-0.2,3.2-0.6
    c0.9-0.4,1.7-1,2.3-1.7c0.6-0.7,1.1-1.6,1.4-2.6c0.3-1,0.5-2.1,0.5-3.3c0-1.2-0.2-2.3-0.5-3.3c-0.3-1-0.8-1.9-1.4-2.6
    c-0.6-0.7-1.4-1.3-2.3-1.7C181.7,30.8,180.6,30.6,179.4,30.6z M179.4,43.8c-1.3,0-2.3-0.5-3-1.4c-0.7-0.9-1-2.3-1-4.2
    c0-1.9,0.3-3.3,1-4.2c0.7-0.9,1.7-1.4,3-1.4c1.3,0,2.3,0.5,3,1.4c0.7,0.9,1,2.3,1,4.2c0,1.9-0.3,3.3-1,4.2
    C181.7,43.3,180.7,43.8,179.4,43.8z"/>
  <path fill="#008373" d="M195.9,30.6c-1.2,0-2.3,0.2-3.2,0.6c-0.9,0.4-1.7,1-2.3,1.7c-0.6,0.7-1.1,1.6-1.4,2.6c-0.3,1-0.5,2.1-0.5,3.3
    c0,1.2,0.2,2.3,0.5,3.3c0.3,1,0.8,1.9,1.4,2.6c0.6,0.7,1.4,1.3,2.3,1.7c0.9,0.4,2,0.6,3.2,0.6c1.2,0,2.3-0.2,3.2-0.6
    c0.9-0.4,1.7-1,2.3-1.7c0.6-0.7,1.1-1.6,1.4-2.6c0.3-1,0.5-2.1,0.5-3.3c0-1.2-0.2-2.3-0.5-3.3c-0.3-1-0.8-1.9-1.4-2.6
    c-0.6-0.7-1.4-1.3-2.3-1.7C198.2,30.8,197.1,30.6,195.9,30.6z M195.9,43.8c-1.3,0-2.3-0.5-3-1.4c-0.7-0.9-1-2.3-1-4.2
    c0-1.9,0.3-3.3,1-4.2c0.7-0.9,1.7-1.4,3-1.4c1.3,0,2.3,0.5,3,1.4c0.7,0.9,1,2.3,1,4.2c0,1.9-0.3,3.3-1,4.2
    C198.2,43.3,197.2,43.8,195.9,43.8z"/>
</svg>