<?xml version="1.0" encoding="UTF-8"?>
<svg width="32px" height="32px" viewBox="0 0 32 32" version="1.1" xmlns="http://www.w3.org/2000/svg" xmlns:xlink="http://www.w3.org/1999/xlink">
    <title>Auto Submit Site Domain Favicon</title>
    <defs>
        <linearGradient x1="0%" y1="0%" x2="100%" y2="100%" id="gradient">
            <stop stop-color="#4158D0" offset="0%"></stop>
            <stop stop-color="#C850C0" offset="46.35%"></stop>
            <stop stop-color="#FFCC70" offset="100%"></stop>
        </linearGradient>
    </defs>
    <g id="favicon" stroke="none" stroke-width="1" fill="none" fill-rule="evenodd">
        <!-- Background Circle -->
        <circle id="background" fill="url(#gradient)" cx="16" cy="16" r="16"></circle>
        
        <!-- Search Symbol -->
        <g id="search-icon" transform="translate(7, 7)" fill="#FFFFFF">
            <path d="M12.7,11.3 L9.55,8.15 C10.3,7.15 10.7,5.9 10.7,4.6 C10.7,2.1 8.6,0 6.1,0 C3.6,0 1.5,2.1 1.5,4.6 C1.5,7.1 3.6,9.2 6.1,9.2 C7.4,9.2 8.65,8.8 9.65,8.05 L12.8,11.2 C12.8,11.2 12.7,11.3 12.7,11.3 Z M2.5,4.6 C2.5,2.6 4.1,1 6.1,1 C8.1,1 9.7,2.6 9.7,4.6 C9.7,6.6 8.1,8.2 6.1,8.2 C4.1,8.2 2.5,6.6 2.5,4.6 Z" id="search-glass" fill-rule="nonzero"></path>
        </g>
        
        <!-- Submission Arrow -->
        <g id="arrow" transform="translate(16, 16)" fill="#FFFFFF">
            <path d="M0,0 L4,0 L4,-4 L6,-4 L3,-8 L0,-4 L2,-4 Z" id="arrow-up"></path>
        </g>

        <!-- Globe Grid Lines -->
        <g id="globe-lines" stroke="#FFFFFF" stroke-width="0.5" opacity="0.7">
            <circle cx="16" cy="16" r="10" fill="none"></circle>
            <path d="M16,6 L16,26" stroke-dasharray="1,1"></path>
            <path d="M6,16 L26,16" stroke-dasharray="1,1"></path>
            <path d="M9,9 L23,23" stroke-dasharray="1,1"></path>
            <path d="M9,23 L23,9" stroke-dasharray="1,1"></path>
        </g>
    </g>
</svg> 