<?xml version="1.0" encoding="UTF-8"?>
<svg width="800px" height="400px" viewBox="0 0 800 400" version="1.1" xmlns="http://www.w3.org/2000/svg" xmlns:xlink="http://www.w3.org/1999/xlink">
    <title>How Auto Submit Works</title>
    <defs>
        <linearGradient x1="0%" y1="0%" x2="100%" y2="100%" id="gradient1">
            <stop stop-color="#4158D0" offset="0%"></stop>
            <stop stop-color="#C850C0" offset="46.35%"></stop>
            <stop stop-color="#FFCC70" offset="100%"></stop>
        </linearGradient>
        <filter id="shadow" x="-10%" y="-10%" width="120%" height="120%">
            <feDropShadow dx="2" dy="2" stdDeviation="3" flood-opacity="0.2"/>
        </filter>
    </defs>
    <g id="how-it-works" stroke="none" stroke-width="1" fill="none" fill-rule="evenodd">
        <!-- Background -->
        <rect fill="#F8F9FA" x="0" y="0" width="800" height="400" rx="10"></rect>
        
        <!-- Step 1: Domain Collection -->
        <g id="step1" transform="translate(50, 50)">
            <rect id="step1-bg" fill="white" x="0" y="0" width="200" height="300" rx="8" filter="url(#shadow)"></rect>
            <rect id="step1-header" fill="#4158D0" x="0" y="0" width="200" height="40" rx="8 8 0 0"></rect>
            <text id="step1-title" font-family="Arial, sans-serif" font-size="14" font-weight="600" fill="white" x="40" y="25">
                Domain Collection
            </text>
            
            <!-- Cloudflare Icon -->
            <g id="cloudflare-icon" transform="translate(70, 70)">
                <circle fill="#F38020" cx="30" cy="30" r="30"></circle>
                <path d="M50,33 C49.7,33 49.4,33 49.1,33 C48.6,28.7 44.9,25.3 40.5,25.3 C37.7,25.3 35.2,26.7 33.8,28.9 C33,28.3 32,28 31,28 C28.8,28 27,29.8 27,32 C27,32.3 27.1,32.6 27.1,32.9 C24.5,33.8 22.5,36.2 22.5,39 C22.5,42.3 25.2,45 28.5,45 L50,45 C53.3,45 56,42.3 56,39 C56,35.7 53.3,33 50,33 Z" fill="white"></path>
            </g>
            
            <!-- Domain Icons -->
            <g id="domains" transform="translate(40, 130)">
                <rect fill="#E9ECEF" x="0" y="0" width="120" height="25" rx="4"></rect>
                <text font-family="Arial, sans-serif" font-size="12" fill="#6C757D" x="10" y="17">
                    example.com
                </text>
                
                <rect fill="#E9ECEF" x="0" y="35" width="120" height="25" rx="4"></rect>
                <text font-family="Arial, sans-serif" font-size="12" fill="#6C757D" x="10" y="52">
                    blog.example.com
                </text>
                
                <rect fill="#E9ECEF" x="0" y="70" width="120" height="25" rx="4"></rect>
                <text font-family="Arial, sans-serif" font-size="12" fill="#6C757D" x="10" y="87">
                    store.example.com
                </text>
                
                <rect fill="#E9ECEF" x="0" y="105" width="120" height="25" rx="4"></rect>
                <text font-family="Arial, sans-serif" font-size="12" fill="#6C757D" x="10" y="122">
                    another-domain.com
                </text>
            </g>
            
            <!-- Animation for step 1 -->
            <circle fill="#4158D0" opacity="0.3" cx="100" cy="250" r="15">
                <animate attributeName="r" values="15;20;15" dur="2s" repeatCount="indefinite" />
                <animate attributeName="opacity" values="0.3;0.5;0.3" dur="2s" repeatCount="indefinite" />
            </circle>
        </g>
        
        <!-- Connection Arrow 1 -->
        <path d="M260,200 L290,200 L320,200" stroke="#CED4DA" stroke-width="2" stroke-dasharray="5,5">
            <animate attributeName="stroke-dashoffset" values="10;0" dur="1.5s" repeatCount="indefinite" />
        </path>
        <polygon fill="#CED4DA" points="320,200 315,195 315,205"></polygon>
        
        <!-- Step 2: URL Extraction -->
        <g id="step2" transform="translate(300, 50)">
            <rect id="step2-bg" fill="white" x="0" y="0" width="200" height="300" rx="8" filter="url(#shadow)"></rect>
            <rect id="step2-header" fill="#C850C0" x="0" y="0" width="200" height="40" rx="8 8 0 0"></rect>
            <text id="step2-title" font-family="Arial, sans-serif" font-size="14" font-weight="600" fill="white" x="45" y="25">
                URL Extraction
            </text>
            
            <!-- Sitemap Representation -->
            <g id="sitemap" transform="translate(40, 60)">
                <rect fill="#E9ECEF" x="0" y="0" width="120" height="30" rx="4"></rect>
                <text font-family="Arial, sans-serif" font-size="12" fill="#6C757D" x="20" y="20">
                    sitemap.xml
                </text>
                
                <!-- Sitemap Tree -->
                <line x1="60" y1="30" x2="60" y2="45" stroke="#CED4DA" stroke-width="2"></line>
                
                <line x1="30" y1="45" x2="90" y2="45" stroke="#CED4DA" stroke-width="2"></line>
                <line x1="30" y1="45" x2="30" y2="60" stroke="#CED4DA" stroke-width="2"></line>
                <line x1="60" y1="45" x2="60" y2="60" stroke="#CED4DA" stroke-width="2"></line>
                <line x1="90" y1="45" x2="90" y2="60" stroke="#CED4DA" stroke-width="2"></line>
                
                <rect fill="#F8F9FA" x="-10" y="60" width="80" height="20" rx="3"></rect>
                <text font-family="Arial, sans-serif" font-size="10" fill="#6C757D" x="5" y="74">
                    page-1.html
                </text>
                
                <rect fill="#F8F9FA" x="40" y="60" width="80" height="20" rx="3"></rect>
                <text font-family="Arial, sans-serif" font-size="10" fill="#6C757D" x="55" y="74">
                    page-2.html
                </text>
                
                <rect fill="#F8F9FA" x="60" y="90" width="80" height="20" rx="3"></rect>
                <text font-family="Arial, sans-serif" font-size="10" fill="#6C757D" x="75" y="104">
                    page-3.html
                </text>
            </g>
            
            <!-- URL List -->
            <g id="url-list" transform="translate(25, 160)">
                <rect fill="#F1F3F5" x="0" y="0" width="150" height="100" rx="4"></rect>
                
                <text font-family="monospace" font-size="10" fill="#495057" x="10" y="20">
                    https://example.com/
                </text>
                
                <text font-family="monospace" font-size="10" fill="#495057" x="10" y="40">
                    https://example.com/page-1
                </text>
                
                <text font-family="monospace" font-size="10" fill="#495057" x="10" y="60">
                    https://example.com/page-2
                </text>
                
                <text font-family="monospace" font-size="10" fill="#495057" x="10" y="80">
                    https://example.com/page-3
                </text>
            </g>
            
            <!-- Animation for step 2 -->
            <circle fill="#C850C0" opacity="0.3" cx="100" cy="250" r="15">
                <animate attributeName="r" values="15;20;15" dur="2s" repeatCount="indefinite" />
                <animate attributeName="opacity" values="0.3;0.5;0.3" dur="2s" repeatCount="indefinite" />
            </circle>
        </g>
        
        <!-- Connection Arrow 2 -->
        <path d="M510,200 L540,200 L570,200" stroke="#CED4DA" stroke-width="2" stroke-dasharray="5,5">
            <animate attributeName="stroke-dashoffset" values="10;0" dur="1.5s" repeatCount="indefinite" />
        </path>
        <polygon fill="#CED4DA" points="570,200 565,195 565,205"></polygon>
        
        <!-- Step 3: Google Submission -->
        <g id="step3" transform="translate(550, 50)">
            <rect id="step3-bg" fill="white" x="0" y="0" width="200" height="300" rx="8" filter="url(#shadow)"></rect>
            <rect id="step3-header" fill="#FFCC70" x="0" y="0" width="200" height="40" rx="8 8 0 0"></rect>
            <text id="step3-title" font-family="Arial, sans-serif" font-size="14" font-weight="600" fill="white" x="40" y="25">
                Google Submission
            </text>
            
            <!-- Google Logo -->
            <g id="google-logo" transform="translate(60, 70)">
                <circle fill="white" cx="40" cy="40" r="35" filter="url(#shadow)"></circle>
                <g transform="translate(15, 25)">
                    <path d="M49.982,20.324 L26,20.324 L26,29.49 L39.823,29.49 C38.952,34.443 34.762,37.723 26,37.723 C18.267,37.723 11.091,31.113 11.091,22.5 C11.091,13.887 18.267,7.277 26,7.277 C30.552,7.277 33.969,9.008 36.453,11.321 L43.356,5.034 C38.759,0.807 33.057,-1.159 26,-1.159 C13.504,-1.159 2.182,9.462 2.182,22.5 C2.182,35.538 13.504,46.16 26,46.16 C37.495,46.16 48.927,37.677 48.927,22.5 C48.927,21.747 49.036,20.96 49.982,20.324 Z" id="Path" fill="#4285F4"></path>
                    <path d="M26,29.49 L39.823,29.49 C38.952,34.443 34.762,37.723 26,37.723 C18.267,37.723 11.091,31.113 11.091,22.5 C11.091,13.887 18.267,7.277 26,7.277 C30.552,7.277 33.969,9.008 36.453,11.321" id="Path-2" fill="#EA4335"></path>
                </g>
            </g>
            
            <!-- Dual Methods -->
            <g id="methods" transform="translate(30, 150)">
                <!-- Browser Automation -->
                <rect fill="#E9ECEF" x="0" y="0" width="140" height="30" rx="4"></rect>
                <text font-family="Arial, sans-serif" font-size="12" fill="#495057" x="15" y="20">
                    site: Operator
                </text>
                
                <!-- GSC API -->
                <rect fill="#E9ECEF" x="0" y="40" width="140" height="30" rx="4"></rect>
                <text font-family="Arial, sans-serif" font-size="12" fill="#495057" x="15" y="60">
                    Search Console API
                </text>
                
                <!-- Status -->
                <rect fill="#D4EDDA" x="0" y="80" width="140" height="30" rx="4"></rect>
                <text font-family="Arial, sans-serif" font-size="12" fill="#155724" x="40" y="100">
                    Submitted!
                </text>
            </g>
            
            <!-- Animation for step 3 -->
            <circle fill="#FFCC70" opacity="0.3" cx="100" cy="250" r="15">
                <animate attributeName="r" values="15;20;15" dur="2s" repeatCount="indefinite" />
                <animate attributeName="opacity" values="0.3;0.5;0.3" dur="2s" repeatCount="indefinite" />
            </circle>
            
            <!-- Success Checkmark -->
            <g id="success" transform="translate(85, 220)">
                <circle fill="#28A745" cx="15" cy="15" r="15"></circle>
                <path d="M8,15 L13,20 L22,10" stroke="white" stroke-width="2" fill="none"></path>
            </g>
        </g>
    </g>
</svg> 