<svg xmlns="http://www.w3.org/2000/svg" viewBox="0 0 200 88" width="200" height="88">
  <path fill="#FF0000" d="M66.98,19.5c0,0-1.12,0-1.68,0c-4.2,0-8.96,2.52-11.2,7.84L43.54,49.42V68.5h9.52V53.06l3.36-7.84l9.8,23.28h10.36
    L63.34,35.78c2.52-5.04,5.04-7.28,9.24-7.28h1.12v-9H66.98z"/>
  <path fill="#FF0000" d="M113.54,19.5h-9.52v49h9.52V19.5z"/>
  <path fill="#FF0000" d="M150.5,19.5h-9.52v29.4c0,5.32-2.8,10.36-8.4,10.36c-5.6,0-8.4-5.04-8.4-10.36v-29.4h-9.52v29.4
    c0,10.92,6.72,19.6,17.92,19.6c11.2,0,17.92-8.68,17.92-19.6V19.5z"/>
  <path fill="#FF0000" d="M166.58,19.5h-9.52v49h9.52V19.5z"/>
</svg>